<svg width="418" height="117" viewBox="0 0 418 117" fill="none" xmlns="http://www.w3.org/2000/svg">
<path d="M130.288 89.896C127.173 89.896 124.037 89.32 120.88 88.168C117.765 87.016 114.971 85.3093 112.496 83.048L119.024 75.176C120.688 76.6267 122.544 77.8 124.592 78.696C126.683 79.592 128.667 80.04 130.544 80.04C132.677 80.04 134.235 79.6773 135.216 78.952C136.24 78.184 136.752 77.16 136.752 75.88C136.752 74.9413 136.475 74.1947 135.92 73.64C135.365 73.0427 134.576 72.5093 133.552 72.04C132.571 71.5707 131.397 71.0587 130.032 70.504L123.952 67.944C122.288 67.2613 120.709 66.344 119.216 65.192C117.765 64.04 116.571 62.6107 115.632 60.904C114.736 59.1973 114.288 57.192 114.288 54.888C114.288 52.2 115.013 49.768 116.464 47.592C117.957 45.416 120.005 43.688 122.608 42.408C125.211 41.128 128.197 40.488 131.568 40.488C134.341 40.488 137.093 41.0213 139.824 42.088C142.555 43.112 144.965 44.6693 147.056 46.76L141.36 53.928C139.781 52.7333 138.224 51.8373 136.688 51.24C135.152 50.6 133.445 50.28 131.568 50.28C129.819 50.28 128.432 50.6213 127.408 51.304C126.427 51.9867 125.936 52.9467 125.936 54.184C125.936 55.08 126.235 55.8267 126.832 56.424C127.472 57.0213 128.325 57.5547 129.392 58.024C130.459 58.4933 131.696 59.0053 133.104 59.56L139.056 61.928C141.019 62.696 142.704 63.6773 144.112 64.872C145.52 66.0667 146.587 67.496 147.312 69.16C148.08 70.7813 148.464 72.7227 148.464 74.984C148.464 77.6293 147.739 80.0827 146.288 82.344C144.88 84.6053 142.811 86.44 140.08 87.848C137.392 89.2133 134.128 89.896 130.288 89.896ZM155.483 89V52.584H164.763L165.595 57.192H165.787C167.28 55.6987 168.88 54.4187 170.587 53.352C172.294 52.2427 174.384 51.688 176.859 51.688C179.376 51.688 181.424 52.2 183.003 53.224C184.624 54.248 185.904 55.7413 186.843 57.704C188.422 56.0827 190.107 54.6747 191.899 53.48C193.691 52.2853 195.803 51.688 198.235 51.688C202.203 51.688 205.083 53.0107 206.875 55.656C208.71 58.3013 209.627 61.9067 209.627 66.472V89H198.235V67.88C198.235 65.3627 197.894 63.656 197.211 62.76C196.571 61.864 195.526 61.416 194.075 61.416C193.264 61.416 192.368 61.6933 191.387 62.248C190.406 62.76 189.36 63.5707 188.251 64.68V89H176.859V67.88C176.859 65.3627 176.518 63.656 175.835 62.76C175.152 61.864 174.086 61.416 172.635 61.416C171.824 61.416 170.928 61.6933 169.947 62.248C168.966 62.76 167.942 63.5707 166.875 64.68V89H155.483ZM218.546 89V52.584H229.938V89H218.546ZM224.242 47.528C222.322 47.528 220.786 46.9947 219.634 45.928C218.482 44.8613 217.906 43.432 217.906 41.64C217.906 39.8907 218.482 38.4827 219.634 37.416C220.786 36.3493 222.322 35.816 224.242 35.816C226.119 35.816 227.634 36.3493 228.786 37.416C229.98 38.4827 230.578 39.8907 230.578 41.64C230.578 43.432 229.98 44.8613 228.786 45.928C227.634 46.9947 226.119 47.528 224.242 47.528Z" fill="#0EC049"/>
<path d="M249.476 89.896C246.873 89.896 244.804 89.3627 243.268 88.296C241.775 87.2293 240.708 85.736 240.068 83.816C239.428 81.896 239.108 79.6773 239.108 77.16V37.864H250.5V77.544C250.5 78.7387 250.713 79.5707 251.14 80.04C251.609 80.4667 252.057 80.68 252.484 80.68C252.697 80.68 252.889 80.68 253.06 80.68C253.231 80.6373 253.465 80.5947 253.764 80.552L255.108 88.936C254.511 89.192 253.743 89.4053 252.804 89.576C251.865 89.7893 250.756 89.896 249.476 89.896ZM276.87 89.896C273.371 89.896 270.214 89.1493 267.398 87.656C264.625 86.12 262.406 83.9227 260.742 81.064C259.121 78.2053 258.31 74.7707 258.31 70.76C258.31 67.816 258.779 65.1707 259.718 62.824C260.699 60.4773 262.001 58.472 263.622 56.808C265.286 55.144 267.142 53.8853 269.19 53.032C271.281 52.136 273.414 51.688 275.59 51.688C279.089 51.688 281.99 52.456 284.294 53.992C286.598 55.528 288.326 57.6187 289.478 60.264C290.63 62.9093 291.206 65.896 291.206 69.224C291.206 70.248 291.142 71.208 291.014 72.104C290.929 73 290.822 73.6827 290.694 74.152H269.318C269.659 75.816 270.257 77.16 271.11 78.184C271.963 79.208 273.009 79.976 274.246 80.488C275.483 80.9573 276.87 81.192 278.406 81.192C279.729 81.192 281.009 81 282.246 80.616C283.483 80.232 284.763 79.656 286.086 78.888L289.862 85.736C287.985 87.0587 285.873 88.0827 283.526 88.808C281.222 89.5333 279.003 89.896 276.87 89.896ZM269.126 66.664H281.542C281.542 64.872 281.094 63.3787 280.198 62.184C279.345 60.9893 277.873 60.392 275.782 60.392C274.758 60.392 273.777 60.6267 272.838 61.096C271.942 61.5227 271.153 62.2053 270.47 63.144C269.83 64.04 269.382 65.2133 269.126 66.664ZM306.387 89.896C304.168 89.896 302.248 89.4053 300.627 88.424C299.005 87.4 297.747 86.056 296.851 84.392C295.997 82.6853 295.571 80.8293 295.571 78.824C295.571 74.984 297.171 71.9973 300.371 69.864C303.571 67.688 308.712 66.216 315.795 65.448C315.709 64.4667 315.475 63.6347 315.091 62.952C314.707 62.2267 314.109 61.6933 313.299 61.352C312.531 60.968 311.528 60.776 310.291 60.776C308.84 60.776 307.347 61.0533 305.811 61.608C304.275 62.1627 302.589 62.952 300.755 63.976L296.786 56.488C298.408 55.5067 300.051 54.6747 301.715 53.992C303.421 53.2667 305.171 52.712 306.963 52.328C308.755 51.9013 310.589 51.688 312.467 51.688C315.624 51.688 318.291 52.2853 320.467 53.48C322.643 54.6747 324.307 56.5093 325.458 58.984C326.611 61.416 327.187 64.5307 327.187 68.328V89H317.907L317.139 85.352H316.819C315.325 86.6747 313.704 87.7627 311.955 88.616C310.248 89.4693 308.392 89.896 306.387 89.896ZM310.291 81.064C311.443 81.064 312.445 80.808 313.299 80.296C314.152 79.784 314.984 79.08 315.795 78.184V72.36C313.448 72.6587 311.571 73.0853 310.163 73.64C308.797 74.1947 307.816 74.8347 307.219 75.56C306.664 76.2853 306.387 77.0747 306.387 77.928C306.387 78.9947 306.728 79.784 307.411 80.296C308.136 80.808 309.096 81.064 310.291 81.064ZM335.983 102.248V52.584H345.263L346.095 56.104H346.287C347.738 54.824 349.338 53.7787 351.087 52.968C352.836 52.1147 354.65 51.688 356.527 51.688C359.428 51.688 361.946 52.456 364.079 53.992C366.212 55.528 367.855 57.6827 369.007 60.456C370.159 63.1867 370.735 66.4293 370.735 70.184C370.735 74.3653 369.988 77.928 368.495 80.872C367.044 83.816 365.146 86.056 362.799 87.592C360.495 89.128 358.042 89.896 355.439 89.896C353.903 89.896 352.41 89.576 350.959 88.936C349.551 88.2533 348.228 87.3147 346.991 86.12L347.375 91.816V102.248H335.983ZM352.751 80.552C353.903 80.552 354.948 80.2107 355.887 79.528C356.868 78.8453 357.636 77.7573 358.191 76.264C358.746 74.7707 359.023 72.808 359.023 70.376C359.023 68.2427 358.81 66.4933 358.383 65.128C357.956 63.72 357.316 62.6747 356.463 61.992C355.61 61.3093 354.5 60.968 353.135 60.968C352.068 60.968 351.087 61.224 350.191 61.736C349.295 62.2053 348.356 62.9733 347.375 64.04V78.44C348.271 79.2507 349.167 79.8053 350.063 80.104C351.002 80.4027 351.898 80.552 352.751 80.552Z" fill="#561EFF"/>
<rect x="31" y="25" width="20" height="20" fill="#0EC049"/>
<rect x="61" y="25" width="20" height="20" fill="#0EC049"/>
<rect x="31" y="87" width="50" height="20" fill="#0EC049"/>
<path d="M31 57H81V107L57 88.5L31 107V57Z" fill="#561EFF"/>
<path d="M56 20L99.3013 57.5H12.6987L56 20Z" fill="#561EFF"/>
<path d="M372.936 50V39.776H369.496V38.208H378.28V39.776H374.824V50H372.936ZM380.333 50V38.208H382.477L384.621 44.176C384.76 44.56 384.893 44.9547 385.021 45.36C385.149 45.7547 385.277 46.1493 385.405 46.544H385.485C385.624 46.1493 385.752 45.7547 385.869 45.36C385.997 44.9547 386.125 44.56 386.253 44.176L388.365 38.208H390.525V50H388.797V44.176C388.797 43.824 388.808 43.4347 388.829 43.008C388.861 42.5813 388.893 42.1493 388.925 41.712C388.968 41.2747 389.011 40.88 389.053 40.528H388.973L388.029 43.248L385.981 48.864H384.829L382.765 43.248L381.821 40.528H381.757C381.8 40.88 381.837 41.2747 381.869 41.712C381.912 42.1493 381.944 42.5813 381.965 43.008C381.997 43.4347 382.013 43.824 382.013 44.176V50H380.333Z" fill="#561EFF"/>
</svg>
